<svg xmlns="http://www.w3.org/2000/svg" viewBox="0 0 20 20" fill="currentColor"><path fill-rule="evenodd" d="M1.37 8.947c5.367-2.331 8.94-3.88 10.735-4.632 5.107-2.132 6.18-2.5 6.87-2.515.153 0 .49.03.72.215.185.153.231.352.262.506.03.153.061.475.03.72-.276 2.914-1.472 9.984-2.085 13.236-.261 1.38-.767 1.84-1.258 1.886-1.073.092-1.886-.706-2.914-1.38-1.625-1.059-2.53-1.718-4.11-2.76-1.825-1.197-.644-1.857.399-2.93.276-.276 4.984-4.57 5.076-4.954.015-.046.015-.23-.092-.322s-.26-.061-.383-.03c-.169.03-2.745 1.748-7.76 5.137-.736.506-1.396.752-1.994.736-.66-.015-1.917-.368-2.868-.674-1.15-.368-2.07-.568-1.994-1.212C.05 9.637.511 9.3 1.37 8.947Z" clip-rule="evenodd"/></svg>
